<svg id="レイヤー_1" data-name="レイヤー 1" xmlns="http://www.w3.org/2000/svg" viewBox="0 0 1000 1000"><defs><style>.cls-1{fill:none;stroke:#000;stroke-miterlimit:10;stroke-width:20px;}</style></defs><rect class="cls-1" x="152.45" y="473.11" width="213.4" height="326.34" rx="96.29" transform="translate(472.32 -16.84) rotate(40.24)"/><rect class="cls-1" x="277.34" y="532.83" width="53.78" height="98.89" transform="translate(448.1 -58.74) rotate(40.24)"/><rect class="cls-1" x="350.54" y="506.59" height="43.37" transform="translate(424.17 -101.43) rotate(40.24)"/><path class="cls-1" d="M208.46,789.12A138.59,138.59,0,0,1,117.3,713a96.66,96.66,0,0,1,14.5-91.38h0l26.9-31.79,25.77-30.46c.55,9.17,4.68,63.45,51.66,102.8,48.43,40.56,104.65,33.63,113.49,32.39l-28,33.11-26.9,31.79h0A99,99,0,0,1,246,787.79,97.18,97.18,0,0,1,208.46,789.12Z"/><rect class="cls-1" x="254.16" y="620.49" height="43.37" transform="translate(474.94 -12.23) rotate(40.24)"/><rect class="cls-1" x="438.41" y="362.42" width="405.98" height="254.4" rx="35.93"/><rect class="cls-1" x="489.21" y="394.25" width="304.37" height="190.73" rx="35.93"/><rect class="cls-1" x="616.24" y="616.81" width="50.31" height="73.49"/><rect class="cls-1" x="470.23" y="690.3" width="348.72" height="41.64"/></svg>