<svg id="レイヤー_1" data-name="レイヤー 1" xmlns="http://www.w3.org/2000/svg" viewBox="0 0 1000 1000"><defs><style>.cls-1,.cls-2{fill:none;stroke:#000;stroke-miterlimit:10;stroke-width:20px;}.cls-2{stroke-linecap:round;}</style></defs><path class="cls-1" d="M685.72,391.41c-42.26-100.74-217.3-120.91-329.64-78.08-8.83,3.37-17.94,6.84-26.84,11l2.9-7.49-60.73-46,15.62,46H235l34.7,46.85h-69.4l45.11,59h-33l56.45,28.23c9.63,44.27,35.81,94.82,64.64,150.47,35.32,68.19,55.74,106.19,95.43,114.51a69.09,69.09,0,0,0,16.94,1.44l33.69,50.61h53.81l-27.51-73.57c10.33-6.27,21.55-13.62,34.1-21.85,48.51-31.83,108.83-71.4,137.06-149.21C687.64,494,706.72,441.47,685.72,391.41Z"/><polygon class="cls-1" points="570.99 651.6 593.76 682.65 618.05 664.9 614.29 616.84 570.99 651.6"/><path class="cls-1" d="M574.68,459.07c-7.74-17.53-37.34-16.37-41.64-8.68-5.33,9.55,21.69,40.83,34.7,36.44C575.25,484.29,579.27,469.45,574.68,459.07Z"/><path class="cls-1" d="M637.14,445.19c1.85-15.74,17.91-25.54,24.29-22.56,10.29,4.82,5.78,47.77-5.21,50.32C649.33,474.54,635.24,461.31,637.14,445.19Z"/><path class="cls-2" d="M604.1,469.65a25.24,25.24,0,0,1,1.57,17.69c-.71,2.39-2.64,9-9.14,12.6-8.45,4.71-17.45.46-18.39,0"/><path class="cls-2" d="M607.33,467.36A23,23,0,0,0,645.18,489"/><polyline class="cls-1" points="513.03 361.32 472.94 330.97 467.73 385.61 424.08 372.31 439.48 434.9 387.29 421.65 469.65 503.76 369.29 480.76 472.7 540.17"/></svg>