<svg id="レイヤー_1" data-name="レイヤー 1" xmlns="http://www.w3.org/2000/svg" viewBox="0 0 1000 1000"><defs><style>.cls-1{fill:none;stroke:#000;stroke-miterlimit:10;stroke-width:20px;}</style></defs><path class="cls-1" d="M163,422.1c-1-10.56,15.3-26.66,31.46-23.07,18.71,4.15,24,31.76,16.79,39.86C202.1,449.17,164.48,437.19,163,422.1Z"/><path class="cls-1" d="M755.1,493.07c-100.87-60-167.62-98.41-213.29-123.31,3.53-6.83,6.91-13.94,13.24-20.65a70.06,70.06,0,0,1,10.61-8.73c21.94-14.35,78.1-15.53,79.6-22.9,1.53-7.52-51-35.61-117.48-37.76C464.49,277.67,414.48,300,387,315.09c-116.06-10.8-210.68,23.26-223.52,56.3-2.16,5.56-6.93,23.76-23.08,33.57-10.07,6.12-16.51,4.07-39.86,10.49C79.69,421.19,68.4,424.29,67,430.13c-3,12.69,41.41,35,69.23,46.16C226.78,512.73,285,489.7,390.07,492.61c23.19,15.86,50.4,35,47,54.57-3.4,19.37-34.71,26.76-33.57,29.37,2,4.57,99-16.87,100.7-52.45.42-8.61-4.82-16.64-12.27-23.72,76.11,10.33,169.44,36,223.35,106,21.51,27.91,44.39,72.77,52.44,69.23,9.71-4.26-23.94-69.31,0-94.4,28.37-29.72,116.46,18.73,121.68,8.39C895.7,577,768.41,501,755.1,493.07Z"/></svg>